name C:\Users\r0593348\3dpredictsim\Results\MidTarsalJoint\Fal_s1_bCst_PF_Natali2010_ls150_MT_k250_d020_MTP_T5_ig21.mot
datacolumns 128
datarows 4
range 0.56607980 0.60004459
endheader
time	pelvis_tilt	pelvis_list	pelvis_rotation	pelvis_tx	pelvis_ty	pelvis_tz	hip_flexion_l	hip_adduction_l	hip_rotation_l	hip_flexion_r	hip_adduction_r	hip_rotation_r	knee_angle_l	knee_angle_r	ankle_angle_l	ankle_angle_r	subtalar_angle_l	subtalar_angle_r	mtj_angle_l	mtj_angle_r	mtp_angle_l	mtp_angle_r	lumbar_extension	lumbar_bending	lumbar_rotation	arm_flex_l	arm_add_l	arm_rot_l	arm_flex_r	arm_add_r	arm_rot_r	elbow_flex_l	elbow_flex_r	pro_sup_l	pro_sup_r	glut_med1_l/activation	glut_med2_l/activation	glut_med3_l/activation	glut_min1_l/activation	glut_min2_l/activation	glut_min3_l/activation	semimem_l/activation	semiten_l/activation	bifemlh_l/activation	bifemsh_l/activation	sar_l/activation	add_long_l/activation	add_brev_l/activation	add_mag1_l/activation	add_mag2_l/activation	add_mag3_l/activation	tfl_l/activation	pect_l/activation	grac_l/activation	glut_max1_l/activation	glut_max2_l/activation	glut_max3_l/activation	iliacus_l/activation	psoas_l/activation	quad_fem_l/activation	gem_l/activation	peri_l/activation	rect_fem_l/activation	vas_med_l/activation	vas_int_l/activation	vas_lat_l/activation	med_gas_l/activation	lat_gas_l/activation	soleus_l/activation	tib_post_l/activation	flex_dig_l/activation	flex_hal_l/activation	tib_ant_l/activation	per_brev_l/activation	per_long_l/activation	per_tert_l/activation	ext_dig_l/activation	ext_hal_l/activation	ercspn_l/activation	intobl_l/activation	extobl_l/activation	glut_med1_r/activation	glut_med2_r/activation	glut_med3_r/activation	glut_min1_r/activation	glut_min2_r/activation	glut_min3_r/activation	semimem_r/activation	semiten_r/activation	bifemlh_r/activation	bifemsh_r/activation	sar_r/activation	add_long_r/activation	add_brev_r/activation	add_mag1_r/activation	add_mag2_r/activation	add_mag3_r/activation	tfl_r/activation	pect_r/activation	grac_r/activation	glut_max1_r/activation	glut_max2_r/activation	glut_max3_r/activation	iliacus_r/activation	psoas_r/activation	quad_fem_r/activation	gem_r/activation	peri_r/activation	rect_fem_r/activation	vas_med_r/activation	vas_int_r/activation	vas_lat_r/activation	med_gas_r/activation	lat_gas_r/activation	soleus_r/activation	tib_post_r/activation	flex_dig_r/activation	flex_hal_r/activation	tib_ant_r/activation	per_brev_r/activation	per_long_r/activation	per_tert_r/activation	ext_dig_r/activation	ext_hal_r/activation	ercspn_r/activation	intobl_r/activation	extobl_r/activation	
          0.56607980	         -2.93015346	          2.18622727	         -5.30784080	          0.70759975	          0.91865003	          0.00169096	         29.38069951	          3.45426519	         -2.27785747	        -16.84109417	         -1.14447750	          6.47805898	        -11.21256764	         -7.81107432	          5.52433253	         -2.25561371	         -4.72647986	          8.20533785	         -0.03316221	          5.92588415	         -0.84813458	          9.67613641	         -1.99356002	         -0.32311353	          2.06026702	         -4.45975801	        -13.45205688	          7.55609573	          5.31186154	        -13.45344524	         17.08698656	         15.80584824	         33.07274673	         86.51662706	         86.51662706	          0.05943442	          0.05943450	          0.05000019	          0.05943468	          0.05943464	          0.05010792	          0.14328955	          0.05943561	          0.21805773	          0.05000072	          0.05000039	          0.13896208	          0.28922099	          0.12063912	          0.14313876	          0.10420221	          0.05000013	          0.08387389	          0.11199061	          0.05000051	          0.08989437	          0.15422596	          0.05000457	          0.05000019	          0.16414366	          0.26784507	          0.13425886	          0.05000052	          0.12051124	          0.11882775	          0.10691930	          0.05216087	          0.05182373	          0.05518015	          0.05000002	          0.05000037	          0.05000021	          0.51632038	          0.25179380	          0.16742624	          0.23308977	          0.45230265	          0.20470353	          0.05943462	          0.11635041	          0.10355194	          0.25776368	          0.10127919	          0.08390652	          0.28655293	          0.19904065	          0.11439844	          0.05000090	          0.05000025	          0.05000017	          0.05797873	          0.11198717	          0.06738852	          0.05000251	          0.05000097	          0.05000174	          0.05000056	          0.30876862	          0.07310606	          0.05000300	          0.05000390	          0.05000207	          0.05000167	          0.43432387	          0.64663462	          0.05000090	          0.05000063	          0.05002392	          0.24948393	          0.05000101	          0.05000105	          0.05000089	          0.29768769	          0.40890114	          0.34607916	          0.27684974	          0.26670710	          0.35099177	          0.05000004	          0.05902611	          0.11766670	          0.05000028	          0.05000007	          0.05000026	          0.05000002	          0.05000007	          0.05000016	
          0.57740139	         -2.92868605	          2.26748839	         -5.60050670	          0.72458484	          0.91765034	          0.00150432	         28.74746621	          3.78254941	         -2.04251213	        -16.79863712	         -1.44261133	          6.28560263	        -11.42433899	         -9.57556065	          4.85100785	         -2.74393200	         -5.09289669	          9.14569435	         -0.00309520	          5.12043567	         -0.84971658	         11.28467245	         -1.79632428	         -0.51193411	          2.12540815	         -5.33317235	        -13.44986450	          7.33493562	          5.04394377	        -13.45990579	         17.38127342	         15.39763104	         34.25767931	         86.51662706	         86.51662706	          0.05000001	          0.05000005	          0.09954065	          0.05000006	          0.05000007	          0.05000010	          0.12054386	          0.05000090	          0.18344327	          0.05000015	          0.05117302	          0.11690377	          0.25883281	          0.30364598	          0.20243488	          0.11356769	          0.05000066	          0.07062912	          0.12327840	          0.05007705	          0.09759721	          0.12974451	          0.05000015	          0.06640201	          0.43601069	          0.22532737	          0.11294665	          0.05943704	          0.13426463	          0.13442609	          0.11635505	          0.05000034	          0.05943646	          0.05000004	          0.05943607	          0.05003351	          0.05943565	          0.44488664	          0.25830580	          0.20147325	          0.19608923	          0.41529254	          0.17220896	          0.05000001	          0.09788095	          0.08711411	          0.21684632	          0.08520216	          0.07058728	          0.24106570	          0.16744501	          0.09623890	          0.05000329	          0.05000071	          0.05000082	          0.05000036	          0.09421069	          0.14308992	          0.05011618	          0.05943685	          0.05933406	          0.05943240	          0.25975485	          0.06151204	          0.05859283	          0.05000319	          0.05000203	          0.05000242	          0.36537943	          0.60836663	          0.05000152	          0.05943615	          0.05943584	          0.20988095	          0.14091175	          0.11969846	          0.14457413	          0.25043273	          0.34399221	          0.30855755	          0.24661598	          0.22437096	          0.29528047	          0.05000007	          0.05000012	          0.13182828	          0.05000018	          0.05000006	          0.05000030	          0.05413559	          0.05997604	          0.05943457	
          0.58872299	         -2.92343518	          2.35213995	         -5.86191605	          0.74187494	          0.91673975	          0.00133326	         28.00457405	          4.02982225	         -1.78340030	        -16.69479322	         -1.74200437	          6.08623589	        -11.95071241	        -11.42842987	          4.29116927	         -3.36291504	         -5.47698131	         10.04720336	         -0.20278014	          4.13665300	         -0.87502522	         13.01695229	         -1.57777180	         -0.71338009	          2.17921432	         -6.23903040	        -13.45406447	          7.16000535	          4.69472580	        -13.46260726	         17.59625847	         15.05396829	         35.42632111	         86.51662706	         86.51662706	          0.22388691	          0.22102580	          0.26941373	          0.32855838	          0.21551962	          0.19286701	          0.10632060	          0.06276137	          0.15432363	          0.08182946	          0.05000095	          0.09834652	          0.21774577	          0.25544531	          0.17030055	          0.11461164	          0.05000051	          0.05943373	          0.10371148	          0.05000076	          0.11940429	          0.10914917	          0.05474830	          0.05586147	          0.36679838	          0.18955903	          0.20729630	          0.05000202	          0.11295153	          0.11308736	          0.09788491	          0.05000097	          0.05000188	          0.05039117	          0.05000124	          0.05000050	          0.05000119	          0.52519437	          0.31710443	          0.16949456	          0.31517392	          0.48857738	          0.14487372	          0.05770613	          0.12145751	          0.07328562	          0.31795263	          0.07167721	          0.05938246	          0.30750308	          0.14086493	          0.08096201	          0.05000188	          0.05000026	          0.05000022	          0.05000023	          0.07925627	          0.12037590	          0.05000094	          0.05000216	          0.05000146	          0.05000104	          0.26502171	          0.05174850	          0.05000090	          0.05001067	          0.05000537	          0.05000265	          0.30737932	          0.58123413	          0.05000059	          0.05000230	          0.05000125	          0.17656449	          0.12163381	          0.10072988	          0.12162735	          0.21067903	          0.28938689	          0.25957711	          0.20746830	          0.18875455	          0.24840790	          0.05000002	          0.09177322	          0.15162889	          0.05000016	          0.05000004	          0.05000016	          0.05000004	          0.05045545	          0.05000006	
          0.60004459	         -2.91664329	          2.42968500	         -6.08678251	          0.75926535	          0.91595484	          0.00113876	         27.21533496	          4.25559137	         -1.52620801	        -16.49041634	         -2.03114682	          5.89691107	        -12.44121337	        -13.41318744	          3.74850758	         -4.13323338	         -5.86232914	         10.91408136	         -0.19832682	          3.02587817	         -0.83113306	         14.79550548	         -1.36038342	         -0.91617353	          2.22508316	         -7.13189878	        -13.45804159	          7.02928622	          4.29788167	        -13.47033175	         17.75801177	         14.75523356	         36.56026873	         86.51662706	         86.51662706	          0.31729151	          0.31244596	          0.33894398	          0.27640320	          0.18130899	          0.18080826	          0.08944356	          0.07559651	          0.12982637	          0.06884017	          0.05000097	          0.08273503	          0.18318085	          0.21489616	          0.14326807	          0.15137545	          0.05000041	          0.05000112	          0.08724894	          0.19901518	          0.17508279	          0.14592554	          0.05000007	          0.05000009	          0.30857286	          0.15946850	          0.17439038	          0.05000007	          0.11084970	          0.13132618	          0.09077224	          0.05000003	          0.05000006	          0.05000000	          0.05000002	          0.05000011	          0.05000011	          0.58290148	          0.29750243	          0.16759775	          0.54874256	          0.52648159	          0.25811466	          0.07924469	          0.10217735	          0.06165226	          0.29700202	          0.06029920	          0.05000023	          0.25918034	          0.11850413	          0.06811016	          0.05000250	          0.05000026	          0.05000024	          0.05000025	          0.06667586	          0.11398544	          0.05000059	          0.05000075	          0.05000179	          0.05000078	          0.22295299	          0.05001079	          0.05000138	          0.05000371	          0.05000196	          0.05000120	          0.25858599	          0.54162849	          0.05000035	          0.05000128	          0.05000027	          0.14853666	          0.10234356	          0.14103462	          0.12027530	          0.17723583	          0.24344960	          0.21837182	          0.17453482	          0.15879178	          0.20897573	          0.05000021	          0.09100805	          0.15792526	          0.05000029	          0.09397879	          0.05000045	          0.07030752	          0.05000001	          0.05000004	
